<?xml version="1.0" encoding="UTF-8"?>
<svg version="1.1" xmlns="http://www.w3.org/2000/svg" width="256" height="256">
<path d="M0 0 C11.50243511 9.20716461 20.59192591 23.06818944 22.97265625 37.62890625 C23.08851217 39.98105088 23.14756287 42.33644376 23.16015625 44.69140625 C23.17433594 45.89925781 23.18851562 47.10710937 23.203125 48.3515625 C22.98499914 51.45338619 22.68161063 53.08327628 20.97265625 55.62890625 C17.03147187 58.78185375 13.94315268 59.16145944 8.97265625 58.62890625 C4.73489873 56.7989655 3.0255421 54.70065222 0.97265625 50.62890625 C0.41796875 47.4296875 0.41796875 47.4296875 0.09765625 43.94140625 C-1.13503305 34.21232952 -4.9346581 25.5086316 -12.734375 19.26171875 C-20.74636481 13.74633676 -30.39178763 11.53118467 -40.02734375 12.62890625 C-48.92748131 14.27707987 -56.61106526 18.27177503 -62.33984375 25.37890625 C-68.70691572 34.81423296 -70.59167634 44.3962076 -69.02734375 55.62890625 C-66.68770969 64.67687158 -62.22537477 72.16355224 -54.40234375 77.37890625 C-48.853871 80.44827415 -44.01889785 81.94484932 -37.71484375 82.62890625 C-32.38004924 83.22493971 -28.94856504 84.00371502 -25.16796875 87.91796875 C-23.23278171 90.8207493 -22.96482178 93.19019775 -23.02734375 96.62890625 C-23.75965967 100.127749 -24.83370065 101.44035902 -27.40234375 103.94140625 C-36.06792026 107.97538152 -46.31412365 105.70922881 -55.02734375 102.62890625 C-72.2565028 95.34662202 -82.98940633 83.88257554 -90.02734375 66.62890625 C-94.68836513 51.6325766 -93.34044715 34.5441679 -86.51953125 20.53125 C-78.41867806 5.62944796 -67.24644774 -3.57889938 -51.27734375 -8.87109375 C-33.49364655 -13.36697226 -15.21695946 -10.29123848 0 0 Z " fill="#AD1927" transform="translate(109.02734375,80.37109375)"/>
<path d="M0 0 C0.82242188 -0.0309375 1.64484375 -0.061875 2.4921875 -0.09375 C6.33658746 0.77323634 8.69362874 2.49454374 11.125 5.5 C13.11574626 9.2325569 14.62002657 13.11315844 16.125 17.0625 C18.51193636 23.16458732 20.89110569 29.17307278 23.9140625 34.9921875 C28.38756392 43.74838764 31.86301774 52.93690739 35.5 62.0625 C36.58390349 64.77152899 37.6693101 67.47994113 38.75665283 70.18759155 C39.47410032 71.97662556 40.18859707 73.76684581 40.90008545 75.55825806 C42.67369776 80.00134568 44.50730574 84.39925077 46.48144531 88.75732422 C46.85822418 89.60246078 47.23500305 90.44759735 47.62319946 91.31834412 C48.33361375 92.90160223 49.06043194 94.47765307 49.80722046 96.04408264 C52.18358612 101.37849611 52.67425914 105.80527859 51.125 111.5 C49.125 114.5625 49.125 114.5625 46.125 116.5 C42.9958716 117.13489562 40.23002911 117.27094045 37.125 116.5 C26.16826628 108.83093613 22.08532742 90.91697834 17.25 78.9375 C15.71284361 75.14375663 14.1730592 71.35108335 12.6328125 67.55859375 C12.25940735 66.63791107 11.8860022 65.71722839 11.50128174 64.76864624 C7.79309223 55.64358771 3.97310879 46.56678587 0.125 37.5 C-8.95207379 57.02805003 -8.95207379 57.02805003 -17.66796875 76.71875 C-18.36679812 78.3289976 -19.08998282 79.92996565 -19.875 81.5 C-20.535 81.5 -21.195 81.5 -21.875 81.5 C-22.26945312 82.75167969 -22.66390625 84.00335938 -23.0703125 85.29296875 C-24.96131965 90.9537973 -27.30647778 96.37144376 -29.75 101.8125 C-30.17152344 102.78767578 -30.59304687 103.76285156 -31.02734375 104.76757812 C-35.07350609 113.7817349 -35.07350609 113.7817349 -39.875 116.5 C-43.9689978 117.16032223 -46.27081936 117.37136876 -49.91015625 115.39453125 C-53.25194002 112.83501308 -54.65109163 111.48187692 -55.6159668 107.25073242 C-55.90749756 103.02944398 -55.2759788 101.21853 -53.3671875 97.4921875 C-52.7992749 96.35587891 -52.2313623 95.21957031 -51.64624023 94.04882812 C-51.18349197 93.15272827 -51.18349197 93.15272827 -50.71139526 92.23852539 C-49.05033643 89.01880356 -47.45031576 85.76866907 -45.83984375 82.5234375 C-45.50660599 81.8561261 -45.17336823 81.1888147 -44.83003235 80.50128174 C-41.46958491 73.7497118 -38.37081072 66.89391853 -35.3125 60 C-34.7855957 58.81712402 -34.25869141 57.63424805 -33.71582031 56.41552734 C-31.81288114 52.13710318 -29.91679803 47.85566796 -28.02288818 43.57324219 C-26.29651589 39.67011844 -24.56604351 35.76886237 -22.83035278 31.86987305 C-22.03311334 30.074568 -21.2418885 28.27659571 -20.45092773 26.47851562 C-8.72106513 0.10867371 -8.72106513 0.10867371 0 0 Z " fill="#AE1927" transform="translate(186.875,69.5)"/>
<path d="M0 0 C5.03681343 2.71213031 8.16583048 5.31874084 9.875 10.8125 C10.03874336 14.98795568 9.02147232 17.36134982 7 21 C3.62561218 24.12748139 1.36138682 25.89527794 -3.25 26.25 C-7.39389365 25.97374042 -9.5770693 25.33381639 -13 23 C-16.28916231 18.28553403 -16.52893989 14.55386885 -16 9 C-14.50282018 5.79175753 -12.72481464 3.27067886 -10 1 C-6.38069302 -0.20643566 -3.80768995 -0.32268559 0 0 Z " fill="#595959" transform="translate(118,157)"/>
<path d="M0 0 C4.31455798 2.28417775 7.13452098 4.43994016 9 9 C9.57311654 12.91629636 9.36707142 16.04993281 7.9375 19.75 C5.33901291 22.76759791 2.76875761 24.66847613 -1 26 C-6.8501199 26.10446643 -10.85414101 23.94471219 -15 20 C-17.80737351 15.67196584 -16.82440338 11.86397992 -16 7 C-15.34 7 -14.68 7 -14 7 C-13.79375 6.401875 -13.5875 5.80375 -13.375 5.1875 C-10.39314215 0.44363524 -5.30804899 -0.77409048 0 0 Z " fill="#595959" transform="translate(189,140)"/>
</svg>
